<svg viewBox="525.6667 330.6667 381 175.1355" width="5000" height="2298.3661417322837" xmlns="http://www.w3.org/2000/svg" xmlns:xlink="http://www.w3.org/1999/xlink" preserveAspectRatio="none"><defs></defs><style>.aa1rFhWXg5U0filter-floo {flood-color:#0B3B63;flood-opacity:0.5;}.aLgOaV3zRcolors-0 {fill:#ABCBFD;fill-opacity:1;}.aR9TavoXYfillColor {fill:#DDF2FF;fill-opacity:1;}.aYLqQhLpe-fillColor {fill:#DDF2FF;fill-opacity:1;}.companyName {fill:#0B3B63;fill-opacity:1;}.icon3-str {stroke:#FFA8C5;stroke-opacity:1;}.shapeStroke-str {stroke:#0B3B63;stroke-opacity:1;}.text {fill:#0B3B63;fill-opacity:1;}</style><defs>
      <filter
        x="619.1588"
        y="481.9269"
        width="193.0158"
        height="23.8753"
        id="a1rFhWXg5U"
        filterUnits="userSpaceOnUse"
        primitiveUnits="userSpaceOnUse"
        color-interpolation-filters="sRGB">
        <feMerge><feMergeNode in="SourceGraphic" /></feMerge>
      </filter></defs><g opacity="1" transform="rotate(0 619.1588 481.9269)">
<svg width="193.0158" height="23.8753" x="619.1588" y="481.9269" version="1.1" preserveAspectRatio="none" viewBox="1.001 -34.5117 282.78650000000005 34.9805">
  <g transform="matrix(1 0 0 1 0 0)" class="text"><path id="id-6izo4zJp22" d="M8.98-31.66L8.98-31.66Q9.45-31.66 9.84-31.27Q10.23-30.88 10.46-29.64Q10.68-28.40 11.14-26.09Q11.60-23.79 12.17-21.17Q12.73-18.55 13.36-15.77Q13.98-12.99 14.61-10.37L14.61-10.37Q16.11-4.24 16.95-1.41L16.95-1.41Q17.15-0.68 16.85-0.25Q16.54 0.18 16.17 0.18Q15.80 0.18 15.50-0.04Q15.20-0.25 14.96-1.31Q14.73-2.36 14.20-4.73Q13.67-7.09 13.07-9.80L13.07-9.80Q13.05-9.92 13.03-10.02L13.03-10.02Q11.70-10.08 9.28-10.08L9.28-10.08Q6.43-10.08 4.92-10L4.92-10Q4.90-9.88 4.88-9.77L4.88-9.77Q3.69-4.02 3.13-0.88L3.13-0.88Q2.93 0.12 2.09 0.12L2.09 0.12Q1.21 0.12 1.02-0.74L1.02-0.74Q0.96-1.00 1.13-1.54Q1.31-2.09 1.65-3.43Q1.99-4.77 2.39-6.49Q2.79-8.22 3.24-10.27Q3.69-12.32 4.16-14.49Q4.63-16.66 5.10-18.86Q5.57-21.05 6.00-23.11Q6.43-25.16 6.81-26.95Q7.19-28.75 7.42-29.80L7.42-29.80Q7.79-31.66 8.98-31.66ZM5.29-11.82L5.29-11.82Q6.78-11.74 9.30-11.74L9.30-11.74Q11.39-11.74 12.64-11.80L12.64-11.80Q12.23-13.57 11.82-15.45L11.82-15.45Q11.17-18.36 10.59-21.09L10.59-21.09Q9.61-25.57 8.91-28.95L8.91-28.95Q8.46-26.70 7.62-22.83L7.62-22.83Q6.52-17.68 5.96-14.98L5.96-14.98Q5.63-13.36 5.29-11.82Z M30.61-9.47L30.61-9.47L30.57-5.25Q30.57-3.16 30.70-1.35L30.70-1.35Q30.74-0.68 30.38-0.36Q30.02-0.04 29.62-0.04Q29.22-0.04 28.90-0.34Q28.57-0.64 28.64-1.26Q28.71-1.88 28.76-2.68Q28.81-3.48 28.85-4.34L28.85-4.34Q28.93-6.05 28.93-7.18Q28.93-8.30 28.89-8.81Q28.85-9.32 28.81-10.32Q28.77-11.33 28.28-12.22Q27.79-13.11 26.91-13.11Q26.04-13.11 25.39-12.73Q24.75-12.36 24.20-11.76L24.20-11.76Q23.09-10.45 22.71-8.71L22.71-8.71Q22.70-8.16 22.70-7.64L22.70-7.64L22.70-6.62Q22.70-3.09 22.77-1.94Q22.85-0.80 22.64-0.42Q22.42-0.04 21.88-0.04Q21.35-0.04 21.04-0.38Q20.74-0.72 20.80-1.64L20.80-1.64Q21.00-4.16 21.00-6.82L21.00-6.82Q21.00-11.37 20.86-13.50L20.86-13.50Q20.78-14.80 21.95-14.80L21.95-14.80Q22.56-14.80 22.72-14.43Q22.89-14.06 22.84-13.65Q22.79-13.24 22.78-12.95Q22.77-12.66 22.77-12.34Q22.77-12.03 22.77-11.78L22.77-11.78Q23.93-13.96 25.84-14.65L25.84-14.65Q26.45-14.86 27.07-14.86Q27.70-14.86 28.36-14.58Q29.02-14.30 29.51-13.65L29.51-13.65Q30.61-12.25 30.61-9.47Z M42.52-4.00L42.52-4.00Q42.50-5.08 42.52-6.64L42.52-6.64Q41.68-6.93 40.39-6.93L40.39-6.93Q38.65-6.93 37.54-6.09L37.54-6.09Q36.99-5.66 36.66-5.05Q36.33-4.43 36.33-3.47Q36.33-2.50 36.99-1.86Q37.66-1.21 38.95-1.21Q40.23-1.21 41.82-2.97L41.82-2.97Q42.27-3.46 42.52-4.00ZM43.77 0.41L43.77 0.41Q42.60 0.41 42.60-1.37L42.60-1.37Q42.60-1.48 42.58-2.03L42.58-2.03Q42.40-1.82 42.19-1.56L42.19-1.56Q40.43 0.43 38.36 0.43L38.36 0.43Q36.70 0.43 35.61-0.63L35.61-0.63Q34.47-1.72 34.47-3.42L34.47-3.42Q34.47-5.78 36.31-7.23L36.31-7.23Q37.13-7.87 38.15-8.20Q39.18-8.54 40.45-8.54L40.45-8.54Q41.50-8.54 42.52-8.18L42.52-8.18L42.52-10.25Q42.52-11.97 41.81-12.83Q41.09-13.69 40.33-13.69Q39.57-13.69 39.09-13.50Q38.61-13.30 38.24-12.93L38.24-12.93Q37.42-12.13 37.30-10.94L37.30-10.94Q37.36-10.31 37.05-10.07Q36.74-9.82 36.37-9.82L36.37-9.82Q35.31-9.82 35.35-11.23L35.35-11.23Q35.39-12.70 36.84-13.93L36.84-13.93Q38.32-15.20 40.16-15.20L40.16-15.20Q42.89-15.20 43.85-12.48L43.85-12.48Q44.18-11.50 44.18-10.33L44.18-10.33L44.18-8.32L44.16-5.04L44.16-3.30Q44.16-2.13 44.44-1.41Q44.73-0.68 44.73-0.38Q44.73-0.08 44.43 0.17Q44.14 0.41 43.77 0.41ZM39.53-18.44L39.53-18.44Q41.33-20.35 41.99-21.23L41.99-21.23Q43.20-22.87 44.02-22.38L44.02-22.38Q44.84-21.84 44.08-20.84L44.08-20.84Q43.54-20.16 42.93-19.57L42.93-19.57Q41.52-18.20 41.07-17.70Q40.63-17.19 40.32-16.94Q40.02-16.70 39.73-16.70Q39.43-16.70 39.19-16.88Q38.95-17.07 38.95-17.43Q38.95-17.79 39.53-18.44Z M51.37-25.55Q51.33-23.16 51.30-20.39Q51.27-17.62 51.27-11.84Q51.27-6.05 51.43-1.13L51.43-1.13Q51.45-0.49 51.12-0.16Q50.80 0.18 50.35 0.18Q49.90 0.18 49.55-0.13Q49.20-0.43 49.26-1.50Q49.32-2.58 49.38-4.74Q49.45-6.89 49.51-9.41L49.51-9.41Q49.61-14.96 49.61-18.70Q49.61-22.44 49.60-24.32Q49.59-26.19 49.57-27.77L49.57-27.77Q49.53-30.74 49.38-33.20L49.38-33.20Q49.34-33.83 49.63-34.17Q49.92-34.51 50.37-34.51Q50.82-34.51 51.20-34.17Q51.58-33.83 51.54-32.81Q51.50-31.80 51.46-29.86Q51.41-27.93 51.37-25.55Z M59.67-20.70L59.67-20.70Q59.80-20.39 59.78-19.95Q59.75-19.51 59.57-19.20Q59.39-18.89 59.16-18.69L59.16-18.69Q58.71-18.34 58.24-18.34Q57.77-18.34 57.50-18.45Q57.23-18.55 57.01-18.75L57.01-18.75Q56.50-19.22 56.50-19.98Q56.50-20.74 56.89-21.07L56.89-21.07Q57.54-21.64 58.18-21.64L58.18-21.64Q59.24-21.64 59.67-20.70ZM59.04-13.36Q58.95-11.33 58.85-9.36Q58.75-7.38 58.75-5.80Q58.75-4.22 58.85-2.53Q58.95-0.84 58.86-0.60Q58.77-0.35 58.61-0.20L58.61-0.20Q58.28 0.14 57.89 0.14Q57.50 0.14 57.16-0.16Q56.82-0.45 56.89-1.35L56.89-1.35Q57.11-3.83 57.11-6.37Q57.11-8.91 57.04-10.48Q56.97-12.05 56.94-12.85Q56.91-13.65 57.01-13.89Q57.11-14.12 57.29-14.26L57.29-14.26Q57.62-14.57 58.03-14.57Q58.44-14.57 58.75-14.28Q59.06-13.98 59.04-13.36L59.04-13.36Z M64.75-4.94L64.75-4.94Q65.64-4.94 65.55-3.32L65.55-3.32Q65.47-2.36 66.29-1.68L66.29-1.68Q67.07-1.02 68.31-1.02Q69.55-1.02 70.31-1.70Q71.07-2.38 71.07-3.41Q71.07-4.43 70.57-5.01Q70.06-5.59 69.30-6.04Q68.54-6.50 67.66-6.92Q66.78-7.34 66.02-7.89L66.02-7.89Q64.24-9.20 64.24-11.11L64.24-11.11Q64.24-12.77 65.37-13.87L65.37-13.87Q66.58-15.06 68.52-15.06L68.52-15.06Q70.18-15.06 71.29-14.10L71.29-14.10Q72.48-13.09 72.48-11.46L72.48-11.46Q72.60-10.66 72.27-10.28Q71.93-9.90 71.49-9.90Q71.05-9.90 70.79-10.29Q70.53-10.68 70.56-11.21Q70.59-11.74 70.50-12.14Q70.41-12.54 70.16-12.87L70.16-12.87Q69.59-13.61 68.32-13.61L68.32-13.61Q67.30-13.61 66.84-13.13L66.84-13.13Q66.04-12.29 66.04-11.37Q66.04-10.45 66.54-9.85Q67.05-9.26 67.81-8.78Q68.57-8.30 69.45-7.87Q70.33-7.44 71.09-6.89L71.09-6.89Q72.87-5.63 72.87-3.71L72.87-3.71Q72.87-1.88 71.66-0.74L71.66-0.74Q70.39 0.45 68.13 0.45L68.13 0.45Q66.17 0.45 64.86-0.70L64.86-0.70Q63.52-1.86 63.63-3.59L63.63-3.59Q63.71-4.94 64.75-4.94Z M84.77-8.44L84.77-8.44Q84.80-11.84 83.34-13.09L83.34-13.09Q82.75-13.61 81.91-13.61Q81.07-13.61 80.53-13.30Q79.98-12.99 79.56-12.46Q79.14-11.93 78.86-11.26Q78.57-10.59 78.40-9.88L78.40-9.88Q78.22-9.14 78.14-8.42L78.14-8.42L80.82-8.30Q83.44-8.30 84.77-8.44ZM85.10-6.86L78.07-6.74Q78.11-4.04 79.04-2.62L79.04-2.62Q80.06-1.09 81.91-1.09L81.91-1.09Q83.61-1.09 84.39-2.77L84.39-2.77Q84.88-3.87 85.61-3.87L85.61-3.87Q85.94-3.87 86.16-3.65Q86.39-3.44 86.37-2.90Q86.35-2.36 85.99-1.74Q85.63-1.11 84.98-0.63L84.98-0.63Q83.57 0.47 81.60 0.47L81.60 0.47Q79.47 0.47 77.93-1.35L77.93-1.35Q76.31-3.26 76.31-5.90Q76.31-8.54 76.77-10.19Q77.23-11.84 77.99-12.93L77.99-12.93Q79.47-15.14 81.70-15.14L81.70-15.14Q84.55-15.14 85.70-12.89L85.70-12.89Q86.50-11.33 86.56-8.30L86.56-8.30Q86.58-7.44 86.29-7.15Q86.00-6.86 85.10-6.86L85.10-6.86Z M105.29-8.59L105.29-8.59L105.27-12.71Q104.14-13.44 103.13-13.44Q102.13-13.44 101.38-13.04Q100.63-12.64 100.02-11.84L100.02-11.84Q98.65-10.06 98.65-7.13L98.65-7.13Q98.65-3.01 100.55-1.70L100.55-1.70Q101.17-1.27 101.97-1.27Q102.77-1.27 103.34-1.60Q103.91-1.93 104.30-2.42L104.30-2.42Q105-3.32 105.25-4.55L105.25-4.55Q105.29-6.15 105.29-8.59ZM106.88-28.13Q106.86-26.66 106.85-25.03Q106.84-23.40 106.84-18.04Q106.84-12.68 107.04-7.65Q107.25-2.62 107.33-2.17Q107.42-1.72 107.53-1.41Q107.64-1.09 107.72-0.90Q107.81-0.70 107.81-0.43Q107.81-0.16 107.57 0.07Q107.32 0.29 107.03 0.29L107.03 0.29Q105.76 0.29 105.70-2.23L105.70-2.23Q105.70-2.29 105.70-2.32L105.70-2.32Q104.41 0.43 101.84 0.43L101.84 0.43Q99.61 0.43 98.24-1.41L98.24-1.41Q96.78-3.38 96.78-6.93L96.78-6.93Q96.78-10.66 98.71-13.01L98.71-13.01Q100.47-15.16 102.87-15.16L102.87-15.16Q104.22-15.16 105.18-14.67L105.18-14.67Q105.16-16.07 105.16-17.58L105.16-17.58Q105.14-19.45 105.12-21.32Q105.10-23.18 105.07-24.94Q105.04-26.70 105.02-28.24L105.02-28.24Q104.98-31.46 104.92-32.58Q104.86-33.69 105.21-33.99Q105.57-34.30 106.01-34.30Q106.45-34.30 106.81-33.99Q107.17-33.69 107.10-32.89Q107.03-32.09 106.97-30.84Q106.91-29.59 106.88-28.13Z M119.84-8.44L119.84-8.44Q119.88-11.84 118.42-13.09L118.42-13.09Q117.83-13.61 116.99-13.61Q116.15-13.61 115.61-13.30Q115.06-12.99 114.64-12.46Q114.22-11.93 113.94-11.26Q113.65-10.59 113.48-9.88L113.48-9.88Q113.30-9.14 113.22-8.42L113.22-8.42L115.90-8.30Q118.52-8.30 119.84-8.44ZM120.18-6.86L113.14-6.74Q113.18-4.04 114.12-2.62L114.12-2.62Q115.14-1.09 116.99-1.09L116.99-1.09Q118.69-1.09 119.47-2.77L119.47-2.77Q119.96-3.87 120.68-3.87L120.68-3.87Q121.02-3.87 121.24-3.65Q121.46-3.44 121.45-2.90Q121.43-2.36 121.06-1.74Q120.70-1.11 120.06-0.63L120.06-0.63Q118.65 0.47 116.68 0.47L116.68 0.47Q114.55 0.47 113.01-1.35L113.01-1.35Q111.39-3.26 111.39-5.90Q111.39-8.54 111.85-10.19Q112.30-11.84 113.07-12.93L113.07-12.93Q114.55-15.14 116.78-15.14L116.78-15.14Q119.63-15.14 120.78-12.89L120.78-12.89Q121.58-11.33 121.64-8.30L121.64-8.30Q121.66-7.44 121.37-7.15Q121.07-6.86 120.18-6.86L120.18-6.86Z M147.15-24.26L147.15-24.26Q147.77-21.88 147.77-18.99Q147.77-16.11 147.29-13.64Q146.80-11.17 145.92-9.07Q145.04-6.97 143.82-5.28Q142.60-3.59 141.11-2.40L141.11-2.40Q138.05 0.06 134.45 0.06L134.45 0.06Q133.89 0.06 133.72-0.30Q133.55-0.66 133.55-1.17L133.55-1.17L133.55-2.85Q133.55-4.06 133.54-5.79Q133.54-7.52 133.53-9.64Q133.52-11.76 133.49-14.03Q133.46-16.31 133.43-18.62Q133.40-20.94 133.36-23.05L133.36-23.05Q133.24-27.42 133.09-29.94L133.09-29.94Q132.99-31.27 134.26-31.43L134.26-31.43Q136.13-31.70 137.34-31.70L137.34-31.70Q145.20-31.70 147.15-24.26ZM135.51-1.78L135.51-1.78Q137.71-1.86 139.90-3.67L139.90-3.67Q143.96-7.05 145.33-13.75L145.33-13.75Q145.80-16.05 145.80-18.97Q145.80-21.89 145.09-24.05Q144.38-26.21 143.24-27.50L143.24-27.50Q141.11-29.92 137.75-29.92L137.75-29.92Q136.29-29.92 135.37-29.61L135.37-29.61Q135.21-27.60 135.21-23.96L135.21-23.96Q135.21-19.61 135.23-17.30Q135.25-15 135.28-12.79Q135.31-10.59 135.34-8.56Q135.37-6.54 135.41-4.94L135.41-4.94Q135.47-2.93 135.51-1.78Z M158.98-4.00L158.98-4.00Q158.96-5.08 158.98-6.64L158.98-6.64Q158.14-6.93 156.86-6.93L156.86-6.93Q155.12-6.93 154.00-6.09L154.00-6.09Q153.46-5.66 153.13-5.05Q152.79-4.43 152.79-3.47Q152.79-2.50 153.46-1.86Q154.12-1.21 155.41-1.21Q156.70-1.21 158.28-2.97L158.28-2.97Q158.73-3.46 158.98-4.00ZM160.23 0.41L160.23 0.41Q159.06 0.41 159.06-1.37L159.06-1.37Q159.06-1.48 159.04-2.03L159.04-2.03Q158.87-1.82 158.65-1.56L158.65-1.56Q156.89 0.43 154.82 0.43L154.82 0.43Q153.16 0.43 152.07-0.63L152.07-0.63Q150.94-1.72 150.94-3.42L150.94-3.42Q150.94-5.78 152.77-7.23L152.77-7.23Q153.59-7.87 154.62-8.20Q155.64-8.54 156.91-8.54L156.91-8.54Q157.97-8.54 158.98-8.18L158.98-8.18L158.98-10.25Q158.98-11.97 158.27-12.83Q157.56-13.69 156.80-13.69Q156.04-13.69 155.56-13.50Q155.08-13.30 154.71-12.93L154.71-12.93Q153.89-12.13 153.77-10.94L153.77-10.94Q153.83-10.31 153.52-10.07Q153.20-9.82 152.83-9.82L152.83-9.82Q151.78-9.82 151.82-11.23L151.82-11.23Q151.86-12.70 153.30-13.93L153.30-13.93Q154.79-15.20 156.62-15.20L156.62-15.20Q159.36-15.20 160.31-12.48L160.31-12.48Q160.64-11.50 160.64-10.33L160.64-10.33L160.64-8.32L160.63-5.04L160.63-3.30Q160.63-2.13 160.91-1.41Q161.19-0.68 161.19-0.38Q161.19-0.08 160.90 0.17Q160.61 0.41 160.23 0.41Z M172.95-8.59L172.95-8.59L172.93-12.71Q171.80-13.44 170.79-13.44Q169.79-13.44 169.03-13.04Q168.28-12.64 167.68-11.84L167.68-11.84Q166.31-10.06 166.31-7.13L166.31-7.13Q166.31-3.01 168.20-1.70L168.20-1.70Q168.83-1.27 169.63-1.27Q170.43-1.27 171.00-1.60Q171.56-1.93 171.95-2.42L171.95-2.42Q172.66-3.32 172.91-4.55L172.91-4.55Q172.95-6.15 172.95-8.59ZM174.54-28.13Q174.51-26.66 174.50-25.03Q174.49-23.40 174.49-18.04Q174.49-12.68 174.70-7.65Q174.90-2.62 174.99-2.17Q175.08-1.72 175.19-1.41Q175.29-1.09 175.38-0.90Q175.47-0.70 175.47-0.43Q175.47-0.16 175.22 0.07Q174.98 0.29 174.69 0.29L174.69 0.29Q173.42 0.29 173.36-2.23L173.36-2.23Q173.36-2.29 173.36-2.32L173.36-2.32Q172.07 0.43 169.49 0.43L169.49 0.43Q167.27 0.43 165.90-1.41L165.90-1.41Q164.43-3.38 164.43-6.93L164.43-6.93Q164.43-10.66 166.37-13.01L166.37-13.01Q168.13-15.16 170.53-15.16L170.53-15.16Q171.88-15.16 172.83-14.67L172.83-14.67Q172.81-16.07 172.81-17.58L172.81-17.58Q172.79-19.45 172.77-21.32Q172.75-23.18 172.72-24.94Q172.70-26.70 172.68-28.24L172.68-28.24Q172.64-31.46 172.58-32.58Q172.52-33.69 172.87-33.99Q173.22-34.30 173.66-34.30Q174.10-34.30 174.46-33.99Q174.82-33.69 174.76-32.89Q174.69-32.09 174.63-30.84Q174.57-29.59 174.54-28.13Z M186.00-13.14L186.00-13.14Q185.35-13.61 184.48-13.61Q183.61-13.61 182.90-13.13Q182.19-12.66 181.70-11.80L181.70-11.80Q180.70-10.08 180.70-7.08Q180.70-4.08 181.66-2.66Q182.62-1.23 184.22-1.23L184.22-1.23Q185.98-1.23 187.03-3.24L187.03-3.24Q187.97-5.04 187.97-7.66L187.97-7.66Q187.97-11.68 186.00-13.14ZM184.20 0.43L184.20 0.43Q183.09 0.45 182.12-0.03Q181.15-0.51 180.45-1.52L180.45-1.52Q178.91-3.67 178.91-7.64L178.91-7.64Q178.91-11.19 180.57-13.24L180.57-13.24Q182.13-15.20 184.71-15.20L184.71-15.20Q186.88-15.20 188.30-13.32L188.30-13.32Q189.77-11.33 189.77-7.85L189.77-7.85Q189.77-3.98 188.07-1.68L188.07-1.68Q186.54 0.39 184.20 0.43Z M194.38-4.94L194.38-4.94Q195.27-4.94 195.18-3.32L195.18-3.32Q195.10-2.36 195.92-1.68L195.92-1.68Q196.70-1.02 197.94-1.02Q199.18-1.02 199.94-1.70Q200.70-2.38 200.70-3.41Q200.70-4.43 200.20-5.01Q199.69-5.59 198.93-6.04Q198.16-6.50 197.29-6.92Q196.41-7.34 195.64-7.89L195.64-7.89Q193.87-9.20 193.87-11.11L193.87-11.11Q193.87-12.77 195-13.87L195-13.87Q196.21-15.06 198.14-15.06L198.14-15.06Q199.80-15.06 200.92-14.10L200.92-14.10Q202.11-13.09 202.11-11.46L202.11-11.46Q202.23-10.66 201.89-10.28Q201.56-9.90 201.12-9.90Q200.68-9.90 200.42-10.29Q200.16-10.68 200.19-11.21Q200.21-11.74 200.13-12.14Q200.04-12.54 199.79-12.87L199.79-12.87Q199.22-13.61 197.95-13.61L197.95-13.61Q196.93-13.61 196.46-13.13L196.46-13.13Q195.66-12.29 195.66-11.37Q195.66-10.45 196.17-9.85Q196.68-9.26 197.44-8.78Q198.20-8.30 199.08-7.87Q199.96-7.44 200.72-6.89L200.72-6.89Q202.50-5.63 202.50-3.71L202.50-3.71Q202.50-1.88 201.29-0.74L201.29-0.74Q200.02 0.45 197.75 0.45L197.75 0.45Q195.80 0.45 194.49-0.70L194.49-0.70Q193.14-1.86 193.26-3.59L193.26-3.59Q193.34-4.94 194.38-4.94Z M221.50-8.44L221.50-8.44Q221.54-11.84 220.08-13.09L220.08-13.09Q219.49-13.61 218.65-13.61Q217.81-13.61 217.27-13.30Q216.72-12.99 216.30-12.46Q215.88-11.93 215.60-11.26Q215.31-10.59 215.14-9.88L215.14-9.88Q214.96-9.14 214.88-8.42L214.88-8.42L217.56-8.30Q220.18-8.30 221.50-8.44ZM221.84-6.86L214.80-6.74Q214.84-4.04 215.78-2.62L215.78-2.62Q216.80-1.09 218.65-1.09L218.65-1.09Q220.35-1.09 221.13-2.77L221.13-2.77Q221.62-3.87 222.34-3.87L222.34-3.87Q222.68-3.87 222.90-3.65Q223.13-3.44 223.11-2.90Q223.09-2.36 222.72-1.74Q222.36-1.11 221.72-0.63L221.72-0.63Q220.31 0.47 218.34 0.47L218.34 0.47Q216.21 0.47 214.67-1.35L214.67-1.35Q213.05-3.26 213.05-5.90Q213.05-8.54 213.51-10.19Q213.96-11.84 214.73-12.93L214.73-12.93Q216.21-15.14 218.44-15.14L218.44-15.14Q221.29-15.14 222.44-12.89L222.44-12.89Q223.24-11.33 223.30-8.30L223.30-8.30Q223.32-7.44 223.03-7.15Q222.73-6.86 221.84-6.86L221.84-6.86Z M237.15-9.06L237.15-9.06Q237.30-4.63 237.40-1.37L237.40-1.37Q237.42-0.70 237.07-0.38Q236.72-0.06 236.32-0.06Q235.92-0.06 235.62-0.36Q235.31-0.66 235.31-1.27L235.31-1.27L235.31-15.96Q235.31-23.57 234.94-29.63L234.94-29.63Q234.88-30.49 235.41-30.82L235.41-30.82Q235.63-30.96 235.86-30.99Q236.09-31.02 236.89-31.25L236.89-31.25Q238.91-31.82 240.89-31.82Q242.87-31.82 244.17-31.38Q245.47-30.94 246.39-30.04L246.39-30.04Q248.34-28.13 248.34-24.39L248.34-24.39Q248.34-19.59 244.55-15.12L244.55-15.12Q243.95-14.39 243.26-13.69L243.26-13.69Q245.18-7.83 247.75-1.74L247.75-1.74Q248.22-0.68 247.29-0.20L247.29-0.20Q247.05-0.08 246.74-0.08L246.74-0.08Q246.04-0.08 245.74-0.88L245.74-0.88Q245.12-2.70 244.61-4.37Q244.10-6.04 243.61-7.62L243.61-7.62Q242.75-10.47 241.99-12.50L241.99-12.50Q239.84-10.61 237.15-9.06ZM237.09-10.92L237.09-10.92Q240.18-12.71 242.87-15.80L242.87-15.80Q246.48-20 246.48-24.22L246.48-24.22Q246.48-28.59 243.42-29.86L243.42-29.86Q241.74-30.57 239.14-30.06L239.14-30.06Q237.91-29.82 237.13-29.43L237.13-29.43Q236.88-23.55 236.88-19.57L236.88-19.57Q236.88-15.33 236.88-15.01Q236.89-14.69 236.90-14.42Q236.91-14.16 236.93-13.88Q236.95-13.59 236.98-13.07Q237.01-12.54 237.05-11.70L237.05-11.70Q237.07-11.35 237.09-10.92Z M255.14-8.61L255.14-8.61Q255.29-3.91 255.37-1.37L255.37-1.37Q255.39-0.70 255.05-0.38Q254.71-0.06 254.31-0.06Q253.91-0.06 253.59-0.36Q253.28-0.66 253.28-1.33L253.28-1.33L253.28-5.74L253.26-11.80L253.26-17.23Q253.26-22.54 253.17-23.98Q253.09-25.43 253.05-26.17Q253.01-26.91 252.95-27.69Q252.89-28.46 252.84-29.20Q252.79-29.94 252.94-30.21Q253.09-30.49 253.30-30.62Q253.52-30.74 253.75-30.78Q253.98-30.82 254.75-31.02L254.75-31.02Q257.15-31.60 259.00-31.60Q260.86-31.60 262.15-31.13Q263.44-30.66 264.36-29.71L264.36-29.71Q266.31-27.70 266.31-23.96L266.31-23.96Q266.31-18.89 262.75-14.65L262.75-14.65Q259.88-11.23 255.14-8.61ZM255.08-10.47L255.08-10.47Q264.51-15.59 264.51-23.79L264.51-23.79Q264.51-28.30 261.39-29.59L261.39-29.59Q259.06-30.55 255.74-29.41L255.74-29.41Q255.35-29.28 255-29.14L255-29.14Q254.86-25.72 254.86-22.11L254.86-22.11L254.86-16.21Q254.86-15.84 254.88-15.49Q254.90-15.14 254.91-14.74Q254.92-14.34 254.95-13.70Q254.98-13.07 255.02-12.11L255.02-12.11Q255.04-11.43 255.08-10.47Z M275.74-31.66L275.74-31.66Q276.21-31.66 276.60-31.27Q276.99-30.88 277.22-29.64Q277.44-28.40 277.90-26.09Q278.36-23.79 278.93-21.17Q279.49-18.55 280.12-15.77Q280.74-12.99 281.37-10.37L281.37-10.37Q282.87-4.24 283.71-1.41L283.71-1.41Q283.91-0.68 283.60-0.25Q283.30 0.18 282.93 0.18Q282.56 0.18 282.26-0.04Q281.95-0.25 281.72-1.31Q281.48-2.36 280.96-4.73Q280.43-7.09 279.82-9.80L279.82-9.80Q279.80-9.92 279.79-10.02L279.79-10.02Q278.46-10.08 276.04-10.08L276.04-10.08Q273.18-10.08 271.68-10L271.68-10Q271.66-9.88 271.64-9.77L271.64-9.77Q270.45-4.02 269.88-0.88L269.88-0.88Q269.69 0.12 268.85 0.12L268.85 0.12Q267.97 0.12 267.77-0.74L267.77-0.74Q267.71-1.00 267.89-1.54Q268.07-2.09 268.41-3.43Q268.75-4.77 269.15-6.49Q269.55-8.22 270-10.27Q270.45-12.32 270.92-14.49Q271.39-16.66 271.86-18.86Q272.32-21.05 272.75-23.11Q273.18-25.16 273.56-26.95Q273.95-28.75 274.18-29.80L274.18-29.80Q274.55-31.66 275.74-31.66ZM272.05-11.82L272.05-11.82Q273.54-11.74 276.05-11.74L276.05-11.74Q278.14-11.74 279.39-11.80L279.39-11.80Q278.98-13.57 278.57-15.45L278.57-15.45Q277.93-18.36 277.34-21.09L277.34-21.09Q276.37-25.57 275.66-28.95L275.66-28.95Q275.21-26.70 274.38-22.83L274.38-22.83Q273.28-17.68 272.71-14.98L272.71-14.98Q272.38-13.36 272.05-11.82Z"/></g>
</svg>
</g><g opacity="1" transform="rotate(0 694.3193 405.1654)">
<svg width="42.6947" height="66.36" x="694.3193" y="405.1654" version="1.1" preserveAspectRatio="none" viewBox="49.400001525878906 21.5 101.07500457763672 157.10000610351562">
  <g transform="matrix(1 0 0 1 0 0)" class="aLgOaV3zRcolors-0"><g><path d="M149.8 69.6c-.9-26-23.7-48.1-49.9-48.1s-49 22-49.9 48.1c-.8 24.5-.8 36.5 0 60.9.9 26 23.7 48.1 49.9 48.1s49-22 49.9-48.1c.9-24.6.9-36.5 0-60.9zm-4.1 60.7c-.8 23.9-21.7 43.9-45.7 43.9s-44.9-20.1-45.7-43.9c-.8-23.8-.8-36.2 0-60.6S76 25.8 100 25.8s44.9 20.1 45.7 43.9.8 36.2 0 60.6zm-43.6-70v30.5c.2 1.2-.6 2.3-1.7 2.5s-2.3-.6-2.5-1.7c-.1-.2-.1-.6 0-.8V60.3c-.2-1.2.6-2.3 1.7-2.5s2.3.6 2.5 1.7c.1.2.1.5 0 .8z"></path></g></g>
</svg>
</g><g opacity="1" transform="rotate(0 754.7175 437.3307)">
<svg width="151.9492" height="2.0294" x="754.7175" y="437.3307" version="1.1" preserveAspectRatio="none" viewBox="0 0 151.9492 2.0294">
  <rect x="0" y="0" width="151.9492" height="2.0294" class="aR9TavoXYfillColor shapeStroke-str" style="stroke-width:0;" rx="0px" ry="0px" />
</svg>
</g><g opacity="1" transform="rotate(0 634.4181 330.6667)">
<svg width="162.4971" height="63.4181" x="634.4181" y="330.6667" version="1.1" preserveAspectRatio="none" viewBox="1.8 -30.8 78.92 30.8">
  <g transform="matrix(1 0 0 1 0 0)" class="companyName"><path id="id-D6z1nYkh3" d="M26.32-23.08L26.32-23.08Q26.32-19.88 24.40-17.76Q22.48-15.64 18.28-14.92L18.28-14.92L27.12-4.28Q28.20-2.96 29.50-2.38Q30.80-1.80 32.60-1.52L32.60-1.52L32.60 0L24.88 0L15.08-12.56Q14.56-13.24 14.10-13.64Q13.64-14.04 13.14-14.26Q12.64-14.48 11.98-14.54Q11.32-14.60 10.40-14.60L10.40-14.60L10.40-6.28Q10.40-4.80 10.58-3.86Q10.76-2.92 11.34-2.40Q11.92-1.88 13.02-1.70Q14.12-1.52 15.92-1.52L15.92-1.52L15.92 0L1.80 0L1.80-1.52Q3.20-1.56 4.06-1.76Q4.92-1.96 5.40-2.44Q5.88-2.92 6.04-3.80Q6.20-4.68 6.20-6.08L6.20-6.08L6.20-24.72Q6.20-26.12 6.06-26.98Q5.92-27.84 5.50-28.34Q5.08-28.84 4.28-29.02Q3.48-29.20 2.20-29.28L2.20-29.28L2.20-30.80L14.76-30.80Q20.28-30.80 23.30-28.76Q26.32-26.72 26.32-23.08ZM10.40-28.24L10.40-16.60L13.24-16.60Q17.24-16.60 19.18-18.06Q21.12-19.52 21.12-22.88L21.12-22.88Q21.12-26.12 19.58-27.52Q18.04-28.92 14.76-28.92L14.76-28.92L11.08-28.92Q10.40-28.92 10.40-28.24L10.40-28.24Z M49.44 0L35.04 0L35.04-1.52Q36.60-1.56 37.54-1.76Q38.48-1.96 38.98-2.44Q39.48-2.92 39.66-3.80Q39.84-4.68 39.84-6.08L39.84-6.08L39.84-24.72Q39.84-26.12 39.70-26.98Q39.56-27.84 39.14-28.34Q38.72-28.84 37.92-29.02Q37.12-29.20 35.84-29.28L35.84-29.28L35.84-30.80L47.80-30.80Q53.20-30.80 56.20-28.88Q59.20-26.96 59.20-23.48L59.20-23.48Q59.20-20.84 57.54-19.16Q55.88-17.48 52.28-16.40L52.28-16.40L52.28-16.24Q53.52-16.12 54.44-15.96Q55.36-15.80 56.08-15.58Q56.80-15.36 57.42-15.04Q58.04-14.72 58.64-14.32L58.64-14.32Q62.20-11.80 62.20-8L62.20-8Q62.20-5.88 61.02-4.06Q59.84-2.24 57.72-1.20L57.72-1.20Q57.04-0.84 56.32-0.62Q55.60-0.40 54.64-0.26Q53.68-0.12 52.42-0.06Q51.16 0 49.44 0L49.44 0ZM49.56-1.72L49.56-1.72Q56.80-1.72 56.80-7.92L56.80-7.92Q56.80-12.44 53.08-14.24L53.08-14.24Q52.44-14.52 51.84-14.72Q51.24-14.92 50.44-15.02Q49.64-15.12 48.54-15.16Q47.44-15.20 45.84-15.20L45.84-15.20L44.04-15.20L44.04-6.28Q44.04-3.84 45.32-2.78Q46.60-1.72 49.56-1.72ZM44.04-17.20L46.28-17.20Q47.52-17.20 48.36-17.24Q49.20-17.28 49.80-17.38Q50.40-17.48 50.86-17.66Q51.32-17.84 51.80-18.16L51.80-18.16Q53.08-18.96 53.62-20.08Q54.16-21.20 54.16-23L54.16-23Q54.16-26.16 52.62-27.54Q51.08-28.92 47.80-28.92L47.80-28.92L44.72-28.92Q44.04-28.92 44.04-28.24L44.04-28.24L44.04-17.20Z M76.36-23.24L76.36-7.56Q76.36-5.56 76.52-4.40Q76.68-3.24 77.14-2.60Q77.60-1.96 78.46-1.76Q79.32-1.56 80.72-1.52L80.72-1.52L80.72 0L67.76 0L67.76-1.52Q69.16-1.56 70.02-1.78Q70.88-2 71.36-2.60Q71.84-3.20 72.00-4.30Q72.16-5.40 72.16-7.28L72.16-7.28L72.16-23.52Q72.16-25.20 72.02-26.30Q71.88-27.40 71.46-28.04Q71.04-28.68 70.24-28.94Q69.44-29.20 68.16-29.28L68.16-29.28L68.16-30.80L80.32-30.80L80.32-29.28Q79.04-29.24 78.26-28.96Q77.48-28.68 77.06-28.02Q76.64-27.36 76.50-26.20Q76.36-25.04 76.36-23.24L76.36-23.24Z"/></g>
</svg>
</g><g opacity="1" transform="rotate(0 525.6667 439.3601)">
<svg width="151.9492" height="2.0294" x="525.6667" y="439.3601" version="1.1" preserveAspectRatio="none" viewBox="0 0 151.9492 2.0294">
  <rect x="0" y="0" width="151.9492" height="2.0294" class="aYLqQhLpe-fillColor shapeStroke-str" style="stroke-width:0;" rx="0px" ry="0px" />
</svg>
</g></svg>